<svg id="Layer_1" data-name="Layer 1" xmlns="http://www.w3.org/2000/svg" viewBox="0 0 54.17 67.26"><defs><style>.cls-1{fill:#fff;}.cls-1,.cls-2{stroke:#231f20;stroke-linejoin:bevel;}.cls-2{fill:none;}.cls-3{font-size:12px;fill:#231f20;font-family:MyriadPro-Regular, Myriad Pro;}.cls-4{letter-spacing:0em;}.cls-5{letter-spacing:-0.01em;}.cls-6{letter-spacing:0em;}.cls-7{letter-spacing:-0.01em;}.cls-8{letter-spacing:0em;}</style></defs><path class="cls-1" d="M279.4,367.76c1.32.18,2.37,2.34,2.37,5s-1.06,4.84-2.39,5" transform="translate(-279.04 -362.07)"/><line class="cls-2" x1="0.5" y1="0.5" x2="0.5" y2="5.99"/><line class="cls-2" x1="0.5" y1="15.47" x2="0.5" y2="20.96"/><path class="cls-1" d="M279.4,383c1.32.17,2.37,2.34,2.37,5s-1.06,4.83-2.39,5" transform="translate(-279.04 -362.07)"/><line class="cls-2" x1="0.5" y1="30.74" x2="0.5" y2="36.23"/><path class="cls-1" d="M279.4,398.29c1.32.18,2.37,2.35,2.37,5s-1.06,4.84-2.39,5" transform="translate(-279.04 -362.07)"/><line class="cls-2" x1="0.5" y1="46.01" x2="0.5" y2="51.49"/><path class="cls-1" d="M279.4,413.56c1.32.18,2.37,2.34,2.37,5s-1.06,4.83-2.39,5" transform="translate(-279.04 -362.07)"/><line class="cls-2" x1="0.5" y1="61.27" x2="0.5" y2="66.76"/><path class="cls-1" d="M332.86,367.76c-1.32.18-2.37,2.34-2.37,5s1.06,4.84,2.39,5" transform="translate(-279.04 -362.07)"/><line class="cls-2" x1="53.67" y1="0.5" x2="53.67" y2="5.99"/><line class="cls-2" x1="53.67" y1="15.47" x2="53.67" y2="20.96"/><path class="cls-1" d="M332.86,383c-1.32.17-2.37,2.34-2.37,5s1.06,4.83,2.39,5" transform="translate(-279.04 -362.07)"/><line class="cls-2" x1="53.67" y1="30.74" x2="53.67" y2="36.23"/><path class="cls-1" d="M332.86,398.29c-1.32.18-2.37,2.35-2.37,5s1.06,4.84,2.39,5" transform="translate(-279.04 -362.07)"/><line class="cls-2" x1="53.67" y1="46.01" x2="53.67" y2="51.49"/><path class="cls-1" d="M332.86,413.56c-1.32.18-2.37,2.34-2.37,5s1.06,4.83,2.39,5" transform="translate(-279.04 -362.07)"/><line class="cls-2" x1="53.67" y1="61.27" x2="53.67" y2="66.76"/><line class="cls-2" x1="0.5" y1="0.5" x2="53.67" y2="0.5"/><line class="cls-2" x1="0.5" y1="66.76" x2="53.67" y2="66.76"/><text class="cls-3" transform="translate(14.72 25.95)"><tspan class="cls-4">P</tspan><tspan x="6.32" y="0">la</tspan><tspan class="cls-5" x="14.94" y="0">c</tspan><tspan x="20.24" y="0">e</tspan><tspan class="cls-6" x="-3.11" y="14.4">S</tspan><tspan x="2.77" y="14.4">tamp</tspan><tspan x="1.3" y="28.8">He</tspan><tspan class="cls-7" x="15.14" y="28.8">r</tspan><tspan class="cls-8" x="18.94" y="28.8">e</tspan></text></svg>