<svg id="Layer_1" data-name="Layer 1" xmlns="http://www.w3.org/2000/svg" viewBox="0 0 202.3 143"><defs><style>.cls-1{fill:#7d7db1;}.cls-2{fill:#ed1e79;stroke:#fff;stroke-miterlimit:10;stroke-width:5px;}.cls-3{font-size:28.69px;}.cls-3,.cls-6{fill:#fff;font-family:MyriadPro-Regular, Myriad Pro;}.cls-4{letter-spacing:-0.07em;}.cls-5{letter-spacing:-0.01em;}.cls-6{font-size:22.47px;}.cls-7{letter-spacing:0em;}.cls-8{letter-spacing:0em;}.cls-9{letter-spacing:-0.01em;}.cls-10{letter-spacing:-0.01em;}.cls-11{letter-spacing:0em;}</style></defs><title>survey</title><path class="cls-1" d="M74,7C42,7,16,23.12,16,43c0,7.14,3.36,13.79,9.14,19.39L9.5,82.5,36.7,70.56C46.78,75.82,59.79,79,74,79c32,0,58-16.12,58-36S106,7,74,7Z" transform="translate(-9.5 -7)"/><path class="cls-2" d="M206,147.5l-24.5-25.95c12.76-7.45,20.74-18,20.74-29.72,0-22.55-29.49-40.83-65.87-40.83S70.5,69.28,70.5,91.83s29.49,40.82,65.87,40.82A100.66,100.66,0,0,0,163.71,129l38.53,18.53Z" transform="translate(-9.5 -7)"/><text class="cls-3" transform="translate(25.91 43.83) scale(0.81 1)"><tspan class="cls-4">T</tspan><tspan x="12.22" y="0">ell </tspan><tspan class="cls-5" x="46.22" y="0">U</tspan><tspan x="64.6" y="0">s</tspan></text><text class="cls-6" transform="translate(84.5 81.41) scale(0.93 1)"><tspan class="cls-7">W</tspan><tspan x="18.9" y="0">h</tspan><tspan class="cls-8" x="31.37" y="0">a</tspan><tspan x="42.12" y="0">t </tspan><tspan class="cls-9" x="54.32" y="0">y</tspan><tspan x="64.68" y="0">ou </tspan><tspan class="cls-10"><tspan x="21.2" y="26.97">T</tspan><tspan class="cls-11" x="32.22" y="26.97">hink</tspan></tspan></text></svg>