<?xml version="1.0" encoding="UTF-8"?><svg id="Layer_1" xmlns="http://www.w3.org/2000/svg" viewBox="0 0 39 38"><defs><style>.cls-1{fill:none;stroke:#006837;stroke-miterlimit:10;}.cls-2{fill:#006837;}</style></defs><g><path class="cls-2" d="M7.88,15.62V7.54h1.14l2.59,4.09c.6,.95,1.07,1.8,1.45,2.63h.02c-.1-1.09-.12-2.07-.12-3.33v-3.38h.98V15.62h-1.06l-2.57-4.1c-.56-.9-1.1-1.82-1.51-2.7h-.04c.06,1.03,.08,2,.08,3.35v3.45h-.98Z"/><path class="cls-2" d="M19.96,11.83h-3.14v2.91h3.5v.88h-4.55V7.54h4.37v.88h-3.32v2.55h3.14v.86Z"/><path class="cls-2" d="M23.11,15.62l-2.05-8.08h1.1l.96,4.09c.24,1.01,.46,2.01,.6,2.79h.02c.13-.8,.38-1.76,.66-2.81l1.08-4.08h1.09l.98,4.1c.23,.96,.44,1.92,.56,2.77h.02c.17-.89,.4-1.79,.65-2.79l1.07-4.08h1.07l-2.29,8.08h-1.09l-1.02-4.21c-.25-1.03-.42-1.82-.53-2.64h-.02c-.14,.8-.32,1.6-.62,2.64l-1.15,4.21h-1.09Z"/><path class="cls-2" d="M17.91,30.18c-.64,.32-1.92,.64-3.56,.64-3.8,0-6.66-2.4-6.66-6.82s2.86-7.08,7.04-7.08c1.68,0,2.74,.36,3.2,.6l-.42,1.42c-.66-.32-1.6-.56-2.72-.56-3.16,0-5.26,2.02-5.26,5.56,0,3.3,1.9,5.42,5.18,5.42,1.06,0,2.14-.22,2.84-.56l.36,1.38Z"/><path class="cls-2" d="M31.19,23.74c0,4.64-2.82,7.1-6.26,7.1s-6.06-2.76-6.06-6.84c0-4.28,2.66-7.08,6.26-7.08s6.06,2.82,6.06,6.82Zm-10.46,.22c0,2.88,1.56,5.46,4.3,5.46s4.32-2.54,4.32-5.6c0-2.68-1.4-5.48-4.3-5.48s-4.32,2.66-4.32,5.62Z"/></g><rect class="cls-1" x="2.5" y="2.5" width="33" height="33"/></svg>